<svg width="180" height="180" viewBox="0 0 32 32" fill="none" xmlns="http://www.w3.org/2000/svg">
  <rect width="32" height="32" rx="7" fill="#0a0d12"/>
  <circle cx="9" cy="11.5" r="2.6" fill="#e8eaed"/>
  <path d="M9 14.2 V20.5" stroke="#e8eaed" stroke-width="1.6" stroke-linecap="round"/>
  <path d="M9 20.5 L6.2 25 M9 20.5 L11.8 25" stroke="#e8eaed" stroke-width="1.5" stroke-linecap="round"/>
  <path d="M9 16 L13.5 13.5" stroke="#e8eaed" stroke-width="1.5" stroke-linecap="round"/>
  <circle cx="19" cy="14.5" r="4.2" stroke="#22d3ee" stroke-width="1.35" fill="#22d3ee" fill-opacity="0.12"/>
  <path d="M13.5 13.5 L16.2 18.8" stroke="#22d3ee" stroke-width="1.3" stroke-linecap="round"/>
  <path d="M17 11.8 L19 10.2 M21 12.5 L22.8 11" stroke="#22d3ee" stroke-width="0.9" stroke-linecap="round" opacity="0.55"/>
  <ellipse cx="25.2" cy="16.8" rx="3.1" ry="2.6" fill="#fbbf24"/>
  <path d="M22.8 18.8 L22.1 22.2 M25.2 19.2 L25.2 22.5 M27.6 18.8 L28.3 22" stroke="#fbbf24" stroke-width="0.95" stroke-linecap="round"/>
  <circle cx="24.2" cy="16.2" r="0.55" fill="#0a0d12" opacity="0.35"/>
  <circle cx="26.2" cy="16.2" r="0.55" fill="#0a0d12" opacity="0.35"/>
  <path d="M2.5 12.5 L4.5 12.5 M2.8 15.5 L5 15.5" stroke="#22d3ee" stroke-width="0.85" stroke-linecap="round" opacity="0.45"/>
</svg>
